<svg width="280" height="480" viewBox="0 0 280 480" fill="none" xmlns="http://www.w3.org/2000/svg">
  <rect x="4" y="4" width="272" height="472" rx="28" fill="white" stroke="#E5E7EB" stroke-width="2"/>
  <rect x="100" y="12" width="80" height="6" rx="3" fill="#E5E7EB"/>
  <!-- Header -->
  <rect x="20" y="30" width="240" height="36" rx="8" fill="#0F766E"/>
  <text x="30" y="53" font-family="system-ui" font-size="13" font-weight="600" fill="white">Rent Agreement</text>
  <!-- Status -->
  <rect x="20" y="80" width="240" height="44" rx="12" fill="#F0FDF4" stroke="#BBF7D0" stroke-width="1"/>
  <circle cx="44" cy="102" r="10" fill="#22C55E"/>
  <text x="44" y="106" font-family="system-ui" font-size="10" fill="white" text-anchor="middle">✓</text>
  <text x="62" y="98" font-family="system-ui" font-size="11" font-weight="600" fill="#15803D">Signed</text>
  <text x="62" y="112" font-family="system-ui" font-size="9" fill="#6B7280">Both parties signed</text>
  <!-- Terms grid -->
  <rect x="20" y="138" width="116" height="50" rx="10" fill="#F9FAFB"/>
  <text x="32" y="155" font-family="system-ui" font-size="8" fill="#9CA3AF">RENT</text>
  <text x="32" y="172" font-family="system-ui" font-size="14" font-weight="700" fill="#1F2937">RM500</text>
  <rect x="144" y="138" width="116" height="50" rx="10" fill="#F9FAFB"/>
  <text x="156" y="155" font-family="system-ui" font-size="8" fill="#9CA3AF">DEPOSIT</text>
  <text x="156" y="172" font-family="system-ui" font-size="14" font-weight="700" fill="#1F2937">RM1,000</text>
  <rect x="20" y="196" width="116" height="50" rx="10" fill="#F9FAFB"/>
  <text x="32" y="213" font-family="system-ui" font-size="8" fill="#9CA3AF">PAY DAY</text>
  <text x="32" y="230" font-family="system-ui" font-size="14" font-weight="700" fill="#1F2937">Day 1</text>
  <rect x="144" y="196" width="116" height="50" rx="10" fill="#F9FAFB"/>
  <text x="156" y="213" font-family="system-ui" font-size="8" fill="#9CA3AF">NOTICE</text>
  <text x="156" y="230" font-family="system-ui" font-size="14" font-weight="700" fill="#1F2937">30 days</text>
  <!-- Utilities -->
  <text x="20" y="275" font-family="system-ui" font-size="10" font-weight="600" fill="#6B7280">UTILITIES</text>
  <rect x="20" y="284" width="240" height="32" rx="8" fill="#F9FAFB"/>
  <text x="32" y="304" font-family="system-ui" font-size="10" fill="#1F2937">Electric</text>
  <text x="210" y="304" font-family="system-ui" font-size="9" fill="#22C55E" font-weight="600">Tenant pays</text>
  <rect x="20" y="320" width="240" height="32" rx="8" fill="#F9FAFB"/>
  <text x="32" y="340" font-family="system-ui" font-size="10" fill="#1F2937">Water</text>
  <text x="218" y="340" font-family="system-ui" font-size="9" fill="#22C55E" font-weight="600">Included</text>
  <!-- Download button -->
  <rect x="20" y="375" width="240" height="44" rx="12" fill="white" stroke="#0F766E" stroke-width="2"/>
  <text x="140" y="402" font-family="system-ui" font-size="13" font-weight="600" fill="#0F766E" text-anchor="middle">Download PDF</text>
  <!-- Bottom nav -->
  <rect x="0" y="430" width="280" height="50" fill="white" stroke="#E5E7EB" stroke-width="1"/>
  <circle cx="56" cy="452" r="10" fill="#E5E7EB"/>
  <circle cx="140" cy="452" r="10" fill="#E5E7EB"/>
  <circle cx="224" cy="452" r="10" fill="#E5E7EB"/>
</svg>
