<svg width="280" height="480" viewBox="0 0 280 480" fill="none" xmlns="http://www.w3.org/2000/svg">
  <rect x="4" y="4" width="272" height="472" rx="28" fill="white" stroke="#E5E7EB" stroke-width="2"/>
  <rect x="100" y="12" width="80" height="6" rx="3" fill="#E5E7EB"/>
  <!-- Header -->
  <rect x="20" y="30" width="240" height="36" rx="8" fill="#0F766E"/>
  <text x="30" y="53" font-family="system-ui" font-size="13" font-weight="600" fill="white">Send Bills</text>
  <!-- Bill card with actions -->
  <rect x="20" y="80" width="240" height="100" rx="12" fill="white" stroke="#E5E7EB" stroke-width="1"/>
  <circle cx="44" cy="108" r="14" fill="#0F766E" opacity="0.1"/>
  <text x="44" y="112" font-family="system-ui" font-size="11" fill="#0F766E" text-anchor="middle" font-weight="600">A</text>
  <rect x="66" y="96" width="100" height="10" rx="3" fill="#1F2937"/>
  <rect x="66" y="112" width="60" height="7" rx="3" fill="#9CA3AF"/>
  <text x="230" y="108" font-family="system-ui" font-size="12" font-weight="700" fill="#1F2937" text-anchor="end">RM545</text>
  <!-- Action buttons -->
  <rect x="32" y="138" width="68" height="30" rx="8" fill="#25D366" opacity="0.1"/>
  <text x="66" y="157" font-family="system-ui" font-size="9" fill="#25D366" text-anchor="middle" font-weight="600">WhatsApp</text>
  <rect x="106" y="138" width="52" height="30" rx="8" fill="#E5E7EB"/>
  <text x="132" y="157" font-family="system-ui" font-size="9" fill="#6B7280" text-anchor="middle">Email</text>
  <rect x="164" y="138" width="52" height="30" rx="8" fill="#E5E7EB"/>
  <text x="190" y="157" font-family="system-ui" font-size="9" fill="#6B7280" text-anchor="middle">View</text>
  <!-- WhatsApp preview -->
  <rect x="20" y="196" width="240" height="180" rx="12" fill="#ECE5DD"/>
  <text x="32" y="218" font-family="system-ui" font-size="9" font-weight="600" fill="#6B7280">Preview</text>
  <!-- Chat bubble -->
  <rect x="32" y="228" width="200" height="130" rx="10" fill="white"/>
  <text x="44" y="248" font-family="system-ui" font-size="9" fill="#1F2937">Assalamualaikum Ahmad,</text>
  <text x="44" y="266" font-family="system-ui" font-size="9" fill="#1F2937" font-weight="600">Bil sewa bulan April 2026:</text>
  <rect x="44" y="278" width="160" height="1" fill="#E5E7EB"/>
  <text x="44" y="294" font-family="system-ui" font-size="9" fill="#6B7280">Sewa bilik: RM500</text>
  <text x="44" y="308" font-family="system-ui" font-size="9" fill="#6B7280">Elektrik: RM30</text>
  <text x="44" y="322" font-family="system-ui" font-size="9" fill="#6B7280">Air: RM15</text>
  <text x="44" y="340" font-family="system-ui" font-size="10" fill="#1F2937" font-weight="700">Jumlah: RM545</text>
  <!-- Send All button -->
  <rect x="20" y="392" width="240" height="44" rx="12" fill="#25D366"/>
  <text x="140" y="419" font-family="system-ui" font-size="13" font-weight="600" fill="white" text-anchor="middle">Send All Bills via WhatsApp</text>
  <!-- Bottom nav -->
  <rect x="0" y="430" width="280" height="50" fill="white" stroke="#E5E7EB" stroke-width="1"/>
  <circle cx="56" cy="452" r="10" fill="#E5E7EB"/>
  <circle cx="140" cy="452" r="10" fill="#E5E7EB"/>
  <circle cx="224" cy="452" r="10" fill="#E5E7EB"/>
</svg>
