<svg width="280" height="480" viewBox="0 0 280 480" fill="none" xmlns="http://www.w3.org/2000/svg">
  <rect x="4" y="4" width="272" height="472" rx="28" fill="white" stroke="#E5E7EB" stroke-width="2"/>
  <rect x="100" y="12" width="80" height="6" rx="3" fill="#E5E7EB"/>
  <!-- Header -->
  <rect x="20" y="30" width="240" height="36" rx="8" fill="#0F766E"/>
  <text x="30" y="53" font-family="system-ui" font-size="13" font-weight="600" fill="white">My Dashboard</text>
  <!-- Hero bill card -->
  <rect x="20" y="80" width="240" height="160" rx="16" fill="url(#tealGrad)"/>
  <defs><linearGradient id="tealGrad" x1="0" y1="0" x2="1" y2="1"><stop stop-color="#0F766E"/><stop offset="1" stop-color="#0D9488"/></linearGradient></defs>
  <text x="32" y="104" font-family="system-ui" font-size="10" fill="white" opacity="0.7">Bil April 2026</text>
  <text x="32" y="138" font-family="system-ui" font-size="32" font-weight="700" fill="white">RM545</text>
  <!-- Breakdown -->
  <rect x="32" y="156" width="216" height="70" rx="10" fill="white" opacity="0.15"/>
  <text x="44" y="176" font-family="system-ui" font-size="9" fill="white" opacity="0.8">Sewa bilik</text>
  <text x="220" y="176" font-family="system-ui" font-size="9" fill="white" text-anchor="end">RM500</text>
  <text x="44" y="194" font-family="system-ui" font-size="9" fill="white" opacity="0.8">Elektrik</text>
  <text x="220" y="194" font-family="system-ui" font-size="9" fill="white" text-anchor="end">RM30</text>
  <text x="44" y="212" font-family="system-ui" font-size="9" fill="white" opacity="0.8">Air</text>
  <text x="220" y="212" font-family="system-ui" font-size="9" fill="white" text-anchor="end">RM15</text>
  <!-- Tenancy info -->
  <rect x="20" y="254" width="240" height="64" rx="12" fill="white" stroke="#E5E7EB" stroke-width="1"/>
  <circle cx="44" cy="286" r="12" fill="#0F766E" opacity="0.1"/>
  <rect x="64" y="276" width="120" height="8" rx="3" fill="#1F2937"/>
  <rect x="64" y="290" width="80" height="6" rx="3" fill="#9CA3AF"/>
  <!-- WhatsApp contact -->
  <rect x="20" y="332" width="240" height="44" rx="12" fill="#25D366" opacity="0.1"/>
  <text x="140" y="359" font-family="system-ui" font-size="12" font-weight="600" fill="#25D366" text-anchor="middle">Contact Landlord via WhatsApp</text>
  <!-- Recent payments -->
  <text x="20" y="404" font-family="system-ui" font-size="11" font-weight="600" fill="#1F2937">Recent Payments</text>
  <rect x="20" y="412" width="240" height="30" rx="8" fill="#F9FAFB"/>
  <text x="32" y="432" font-family="system-ui" font-size="9" fill="#6B7280">15 Mar 2026</text>
  <text x="220" y="432" font-family="system-ui" font-size="10" fill="#22C55E" text-anchor="end" font-weight="600">+RM500</text>
  <!-- Bottom nav -->
  <rect x="0" y="450" width="280" height="30" fill="white" stroke="#E5E7EB" stroke-width="1"/>
</svg>
