<svg width="280" height="480" viewBox="0 0 280 480" fill="none" xmlns="http://www.w3.org/2000/svg">
  <rect x="4" y="4" width="272" height="472" rx="28" fill="white" stroke="#E5E7EB" stroke-width="2"/>
  <rect x="100" y="12" width="80" height="6" rx="3" fill="#E5E7EB"/>
  <!-- Header -->
  <rect x="20" y="30" width="240" height="36" rx="8" fill="#0F766E"/>
  <text x="30" y="53" font-family="system-ui" font-size="13" font-weight="600" fill="white">My Tenancy</text>
  <!-- Property info card -->
  <rect x="20" y="80" width="240" height="80" rx="12" fill="white" stroke="#E5E7EB" stroke-width="1"/>
  <circle cx="48" cy="112" r="16" fill="#0F766E" opacity="0.1"/>
  <rect x="40" y="106" width="16" height="12" rx="2" fill="#0F766E" opacity="0.4"/>
  <rect x="72" y="96" width="140" height="10" rx="3" fill="#1F2937"/>
  <rect x="72" y="112" width="100" height="8" rx="3" fill="#9CA3AF"/>
  <rect x="72" y="128" width="60" height="7" rx="3" fill="#9CA3AF"/>
  <!-- Landlord card -->
  <text x="20" y="186" font-family="system-ui" font-size="10" font-weight="600" fill="#6B7280">YOUR LANDLORD</text>
  <rect x="20" y="196" width="240" height="80" rx="12" fill="white" stroke="#E5E7EB" stroke-width="1"/>
  <circle cx="48" cy="228" r="16" fill="#3B82F6" opacity="0.1"/>
  <text x="48" y="232" font-family="system-ui" font-size="12" fill="#3B82F6" text-anchor="middle" font-weight="600">M</text>
  <rect x="72" y="216" width="100" height="10" rx="3" fill="#1F2937"/>
  <rect x="72" y="232" width="80" height="8" rx="3" fill="#9CA3AF"/>
  <rect x="72" y="248" width="60" height="7" rx="3" fill="#9CA3AF"/>
  <!-- WhatsApp button -->
  <rect x="20" y="296" width="240" height="52" rx="14" fill="#25D366"/>
  <text x="140" y="327" font-family="system-ui" font-size="14" font-weight="600" fill="white" text-anchor="middle">WhatsApp Landlord</text>
  <!-- Call button -->
  <rect x="20" y="360" width="240" height="52" rx="14" fill="white" stroke="#E5E7EB" stroke-width="2"/>
  <text x="140" y="391" font-family="system-ui" font-size="14" font-weight="600" fill="#1F2937" text-anchor="middle">Call</text>
  <!-- Bottom nav -->
  <rect x="0" y="450" width="280" height="30" fill="white" stroke="#E5E7EB" stroke-width="1"/>
</svg>
