<svg width="280" height="480" viewBox="0 0 280 480" fill="none" xmlns="http://www.w3.org/2000/svg">
  <rect x="4" y="4" width="272" height="472" rx="28" fill="white" stroke="#E5E7EB" stroke-width="2"/>
  <rect x="100" y="12" width="80" height="6" rx="3" fill="#E5E7EB"/>
  <!-- Header -->
  <rect x="20" y="30" width="240" height="36" rx="8" fill="#0F766E"/>
  <text x="30" y="53" font-family="system-ui" font-size="13" font-weight="600" fill="white">Rent Agreement</text>
  <!-- Signed badge -->
  <rect x="20" y="80" width="240" height="40" rx="12" fill="#F0FDF4" stroke="#BBF7D0" stroke-width="1"/>
  <circle cx="44" cy="100" r="10" fill="#22C55E"/>
  <text x="44" y="104" font-family="system-ui" font-size="10" fill="white" text-anchor="middle">✓</text>
  <text x="62" y="104" font-family="system-ui" font-size="11" font-weight="600" fill="#15803D">Signed by both parties</text>
  <!-- Terms -->
  <rect x="20" y="134" width="116" height="46" rx="10" fill="#F9FAFB"/>
  <text x="32" y="152" font-family="system-ui" font-size="8" fill="#9CA3AF">RENT</text>
  <text x="32" y="168" font-family="system-ui" font-size="13" font-weight="700" fill="#1F2937">RM500/mo</text>
  <rect x="144" y="134" width="116" height="46" rx="10" fill="#F9FAFB"/>
  <text x="156" y="152" font-family="system-ui" font-size="8" fill="#9CA3AF">DEPOSIT</text>
  <text x="156" y="168" font-family="system-ui" font-size="13" font-weight="700" fill="#1F2937">RM1,000</text>
  <!-- Rules -->
  <text x="20" y="210" font-family="system-ui" font-size="10" font-weight="600" fill="#6B7280">HOUSE RULES</text>
  <rect x="20" y="218" width="240" height="28" rx="8" fill="#F9FAFB"/>
  <text x="32" y="236" font-family="system-ui" font-size="9" fill="#1F2937">1. No smoking in rooms</text>
  <rect x="20" y="250" width="240" height="28" rx="8" fill="#F9FAFB"/>
  <text x="32" y="268" font-family="system-ui" font-size="9" fill="#1F2937">2. Quiet hours 10pm - 7am</text>
  <rect x="20" y="282" width="240" height="28" rx="8" fill="#F9FAFB"/>
  <text x="32" y="300" font-family="system-ui" font-size="9" fill="#1F2937">3. No pets allowed</text>
  <!-- Download -->
  <rect x="20" y="330" width="240" height="44" rx="12" fill="white" stroke="#0F766E" stroke-width="2"/>
  <text x="140" y="357" font-family="system-ui" font-size="13" font-weight="600" fill="#0F766E" text-anchor="middle">Download PDF</text>
  <!-- Bottom nav -->
  <rect x="0" y="450" width="280" height="30" fill="white" stroke="#E5E7EB" stroke-width="1"/>
</svg>
