<svg width="280" height="480" viewBox="0 0 280 480" fill="none" xmlns="http://www.w3.org/2000/svg">
  <rect x="4" y="4" width="272" height="472" rx="28" fill="white" stroke="#E5E7EB" stroke-width="2"/>
  <rect x="100" y="12" width="80" height="6" rx="3" fill="#E5E7EB"/>
  <!-- Header -->
  <rect x="20" y="30" width="240" height="36" rx="8" fill="#0F766E"/>
  <text x="30" y="53" font-family="system-ui" font-size="13" font-weight="600" fill="white">Reports</text>
  <!-- Stat cards -->
  <rect x="20" y="80" width="116" height="56" rx="10" fill="#F0FDFA"/>
  <text x="32" y="100" font-family="system-ui" font-size="8" fill="#6B7280">INCOME (12m)</text>
  <text x="32" y="122" font-family="system-ui" font-size="16" font-weight="700" fill="#0F766E">RM18,400</text>
  <rect x="144" y="80" width="116" height="56" rx="10" fill="#F0FDFA"/>
  <text x="156" y="100" font-family="system-ui" font-size="8" fill="#6B7280">COLLECTION</text>
  <text x="156" y="122" font-family="system-ui" font-size="16" font-weight="700" fill="#0F766E">87%</text>
  <!-- Bar chart -->
  <rect x="20" y="150" width="240" height="140" rx="12" fill="white" stroke="#E5E7EB" stroke-width="1"/>
  <text x="32" y="172" font-family="system-ui" font-size="10" font-weight="600" fill="#1F2937">Monthly Income</text>
  <!-- Bars -->
  <rect x="42" y="230" width="24" height="40" rx="4" fill="#0F766E" opacity="0.3"/>
  <rect x="76" y="210" width="24" height="60" rx="4" fill="#0F766E" opacity="0.4"/>
  <rect x="110" y="220" width="24" height="50" rx="4" fill="#0F766E" opacity="0.5"/>
  <rect x="144" y="200" width="24" height="70" rx="4" fill="#0F766E" opacity="0.6"/>
  <rect x="178" y="190" width="24" height="80" rx="4" fill="#0F766E" opacity="0.8"/>
  <rect x="212" y="195" width="24" height="75" rx="4" fill="#0F766E"/>
  <!-- Labels -->
  <text x="50" y="280" font-family="system-ui" font-size="7" fill="#9CA3AF" text-anchor="middle">Nov</text>
  <text x="84" y="280" font-family="system-ui" font-size="7" fill="#9CA3AF" text-anchor="middle">Dec</text>
  <text x="118" y="280" font-family="system-ui" font-size="7" fill="#9CA3AF" text-anchor="middle">Jan</text>
  <text x="152" y="280" font-family="system-ui" font-size="7" fill="#9CA3AF" text-anchor="middle">Feb</text>
  <text x="186" y="280" font-family="system-ui" font-size="7" fill="#9CA3AF" text-anchor="middle">Mar</text>
  <text x="220" y="280" font-family="system-ui" font-size="7" fill="#9CA3AF" text-anchor="middle">Apr</text>
  <!-- Report links -->
  <rect x="20" y="304" width="240" height="36" rx="10" fill="white" stroke="#E5E7EB" stroke-width="1"/>
  <text x="32" y="326" font-family="system-ui" font-size="11" fill="#1F2937">Monthly Collection</text>
  <text x="240" y="326" font-family="system-ui" font-size="11" fill="#9CA3AF" text-anchor="end">→</text>
  <rect x="20" y="348" width="240" height="36" rx="10" fill="white" stroke="#E5E7EB" stroke-width="1"/>
  <text x="32" y="370" font-family="system-ui" font-size="11" fill="#1F2937">Annual Tax (LHDN)</text>
  <text x="240" y="370" font-family="system-ui" font-size="11" fill="#9CA3AF" text-anchor="end">→</text>
  <rect x="20" y="392" width="240" height="36" rx="10" fill="white" stroke="#E5E7EB" stroke-width="1"/>
  <text x="32" y="414" font-family="system-ui" font-size="11" fill="#1F2937">Tenant Aging</text>
  <text x="240" y="414" font-family="system-ui" font-size="11" fill="#9CA3AF" text-anchor="end">→</text>
  <!-- Bottom nav -->
  <rect x="0" y="430" width="280" height="50" fill="white" stroke="#E5E7EB" stroke-width="1"/>
  <circle cx="56" cy="452" r="10" fill="#E5E7EB"/>
  <circle cx="140" cy="452" r="10" fill="#E5E7EB"/>
  <circle cx="224" cy="452" r="10" fill="#E5E7EB"/>
</svg>
