<svg width="280" height="480" viewBox="0 0 280 480" fill="none" xmlns="http://www.w3.org/2000/svg">
  <rect x="4" y="4" width="272" height="472" rx="28" fill="white" stroke="#E5E7EB" stroke-width="2"/>
  <rect x="100" y="12" width="80" height="6" rx="3" fill="#E5E7EB"/>
  <!-- Header -->
  <rect x="20" y="30" width="240" height="36" rx="8" fill="#0F766E"/>
  <text x="30" y="53" font-family="system-ui" font-size="13" font-weight="600" fill="white">Tenants (3)</text>
  <rect x="216" y="40" width="34" height="18" rx="9" fill="white" opacity="0.2"/>
  <text x="233" y="52" font-family="system-ui" font-size="9" fill="white" text-anchor="middle">+ Add</text>
  <!-- Tenant card 1 -->
  <rect x="20" y="80" width="240" height="64" rx="12" fill="white" stroke="#E5E7EB" stroke-width="1"/>
  <circle cx="48" cy="112" r="16" fill="#0F766E" opacity="0.1"/>
  <text x="48" y="116" font-family="system-ui" font-size="12" fill="#0F766E" text-anchor="middle" font-weight="600">A</text>
  <rect x="72" y="100" width="100" height="10" rx="3" fill="#1F2937"/>
  <rect x="72" y="116" width="70" height="7" rx="3" fill="#9CA3AF"/>
  <rect x="200" y="104" width="44" height="18" rx="9" fill="#F0FDF4"/>
  <text x="222" y="116" font-family="system-ui" font-size="8" fill="#22C55E" text-anchor="middle" font-weight="600">Room A</text>
  <!-- Tenant card 2 -->
  <rect x="20" y="156" width="240" height="64" rx="12" fill="white" stroke="#E5E7EB" stroke-width="1"/>
  <circle cx="48" cy="188" r="16" fill="#3B82F6" opacity="0.1"/>
  <text x="48" y="192" font-family="system-ui" font-size="12" fill="#3B82F6" text-anchor="middle" font-weight="600">S</text>
  <rect x="72" y="176" width="90" height="10" rx="3" fill="#1F2937"/>
  <rect x="72" y="192" width="60" height="7" rx="3" fill="#9CA3AF"/>
  <rect x="200" y="180" width="44" height="18" rx="9" fill="#F0FDF4"/>
  <text x="222" y="192" font-family="system-ui" font-size="8" fill="#22C55E" text-anchor="middle" font-weight="600">Room B</text>
  <!-- Tenant card 3 -->
  <rect x="20" y="232" width="240" height="64" rx="12" fill="white" stroke="#E5E7EB" stroke-width="1"/>
  <circle cx="48" cy="264" r="16" fill="#F59E0B" opacity="0.1"/>
  <text x="48" y="268" font-family="system-ui" font-size="12" fill="#F59E0B" text-anchor="middle" font-weight="600">M</text>
  <rect x="72" y="252" width="110" height="10" rx="3" fill="#1F2937"/>
  <rect x="72" y="268" width="80" height="7" rx="3" fill="#9CA3AF"/>
  <rect x="200" y="256" width="44" height="18" rx="9" fill="#F0FDF4"/>
  <text x="222" y="268" font-family="system-ui" font-size="8" fill="#22C55E" text-anchor="middle" font-weight="600">Room C</text>
  <!-- Invite section -->
  <rect x="20" y="320" width="240" height="70" rx="12" fill="#EFF6FF" stroke="#BFDBFE" stroke-width="1"/>
  <text x="38" y="345" font-family="system-ui" font-size="11" font-weight="600" fill="#1E40AF">Invite via WhatsApp</text>
  <rect x="38" y="355" width="190" height="8" rx="3" fill="#93C5FD" opacity="0.4"/>
  <rect x="38" y="368" width="120" height="8" rx="3" fill="#93C5FD" opacity="0.3"/>
  <!-- Bottom nav -->
  <rect x="0" y="430" width="280" height="50" fill="white" stroke="#E5E7EB" stroke-width="1"/>
  <circle cx="56" cy="452" r="10" fill="#E5E7EB"/>
  <circle cx="140" cy="452" r="10" fill="#E5E7EB"/>
  <circle cx="224" cy="452" r="10" fill="#E5E7EB"/>
</svg>
